<svg width="92" height="92" viewBox="0 0 92 92" fill="none" xmlns="http://www.w3.org/2000/svg">
<path d="M43.2921 53.5593L43.2922 53.5593L43.2893 53.5539L40.0205 47.4607L39.9486 47.3267L39.7985 47.3515L39.4673 47.4062L39.2894 47.4357V47.616V61.9175H25.0954V23.5655H49.8038C58.59 23.5655 64.3773 28.5497 64.3773 35.2626C64.3773 38.337 63.2086 41.1048 61.053 43.1053C58.8969 45.1061 55.7395 46.3518 51.742 46.3518C50.3678 46.3518 49.1084 46.2431 47.9601 46.0242L47.8109 45.9958L47.7356 46.1277L47.5138 46.5166L47.4261 46.6704L47.5616 46.7845C50.7434 49.4649 52.9502 50.3234 55.6733 50.3234C58.8408 50.3234 61.9288 49.0846 63.6651 47.1369L65.414 61.1771C63.6007 62.0258 60.7959 62.7527 58.9996 62.7527C55.3026 62.7527 52.3541 62.3107 49.8456 60.9508C47.3405 59.5928 45.2484 57.3052 43.294 53.5631L43.2921 53.5593ZM51.3905 38.8545H51.3989V38.6419C51.3989 37.4164 50.9146 36.4396 50.0713 35.7742C49.234 35.1134 48.0611 34.7734 46.6993 34.7734H39.4992H39.2866V34.986V40.6931V40.8295L39.4106 40.8863C42.0842 42.1119 44.0539 42.6775 46.3653 42.6775C49.0056 42.6775 51.263 41.2243 51.3905 38.8545Z" fill="#F0E7D8" stroke="#4A4A4A" stroke-width="0.425198"/>
<path d="M0.426222 45.3181C0.426222 20.9915 20.1408 1.27098 44.4598 1.27098C68.7787 1.27098 88.4933 20.9915 88.4933 45.3181C88.4933 69.6446 68.7787 89.3651 44.4598 89.3651C20.1408 89.3651 0.426222 69.6446 0.426222 45.3181ZM10.0592 45.3181C10.0592 64.3229 25.4606 79.7291 44.4598 79.7291C63.4589 79.7291 78.8603 64.3229 78.8603 45.3181C78.8603 26.3133 63.4589 10.907 44.4598 10.907C25.4606 10.907 10.0592 26.3133 10.0592 45.3181Z" fill="#F0E7D8" stroke="#4A4A4A" stroke-width="0.425198"/>
<path d="M46.4485 55.9251L46.4486 55.925L46.4457 55.9196L43.1769 49.8265L43.105 49.6924L42.9549 49.7172L42.6237 49.772L42.4457 49.8014V49.9817V64.2832H28.2518V25.9312H52.9602C61.7464 25.9312 67.5337 30.9154 67.5337 37.6283C67.5337 40.7027 66.365 43.4705 64.2094 45.471C62.0533 47.4718 58.8959 48.7175 54.8984 48.7175C53.5242 48.7175 52.2647 48.6089 51.1165 48.39L50.9672 48.3615L50.892 48.4935L50.6702 48.8823L50.5825 49.0362L50.7179 49.1503C53.8997 51.8306 56.1066 52.6891 58.8297 52.6891C61.9972 52.6891 65.0851 51.4504 66.8214 49.5027L68.5704 63.5428C66.7571 64.3915 63.9522 65.1184 62.156 65.1184C58.459 65.1184 55.5105 64.6764 53.0019 63.3165C50.4969 61.9586 48.4048 59.6709 46.4504 55.9288L46.4485 55.9251ZM54.5469 41.2203H54.5553V41.0077C54.5553 39.7822 54.0709 38.8053 53.2277 38.1399C52.3904 37.4791 51.2175 37.1392 49.8556 37.1392H42.6556H42.443V37.3518V43.0588V43.1952L42.567 43.2521C45.2405 44.4777 47.2103 45.0432 49.5217 45.0432C52.162 45.0432 54.4194 43.59 54.5469 41.2203Z" fill="#686868" stroke="#4A4A4A" stroke-width="0.425198"/>
<path d="M3.58276 47.687C3.58276 23.3605 23.2974 3.63997 47.6163 3.63997C71.9352 3.63997 91.6498 23.3605 91.6498 47.687C91.6498 72.0136 71.9352 91.7341 47.6163 91.7341C23.2974 91.7341 3.58276 72.0136 3.58276 47.687ZM13.2157 47.687C13.2157 66.6919 28.6171 82.0981 47.6163 82.0981C66.6154 82.0981 82.0169 66.6919 82.0169 47.687C82.0169 28.6822 66.6154 13.276 47.6163 13.276C28.6171 13.276 13.2157 28.6822 13.2157 47.687Z" fill="#676767" stroke="#4A4A4A" stroke-width="0.425198"/>
<path d="M43.2921 53.5593L43.2922 53.5593L43.2893 53.5539L40.0205 47.4607L39.9486 47.3267L39.7985 47.3515L39.4673 47.4062L39.2894 47.4357V47.616V61.9175H25.0954V23.5655H49.8038C58.59 23.5655 64.3773 28.5497 64.3773 35.2626C64.3773 38.337 63.2086 41.1048 61.053 43.1053C58.8969 45.1061 55.7395 46.3518 51.742 46.3518C50.3678 46.3518 49.1084 46.2431 47.9601 46.0242L47.8109 45.9958L47.7356 46.1277L47.5138 46.5166L47.4261 46.6704L47.5616 46.7845C50.7434 49.4649 52.9502 50.3234 55.6733 50.3234C58.8408 50.3234 61.9288 49.0846 63.6651 47.1369L65.414 61.1771C63.6007 62.0258 60.7959 62.7527 58.9996 62.7527C55.3026 62.7527 52.3541 62.3107 49.8456 60.9508C47.3405 59.5928 45.2484 57.3052 43.294 53.5631L43.2921 53.5593ZM51.3905 38.8545H51.3989V38.6419C51.3989 37.4164 50.9146 36.4396 50.0713 35.7742C49.234 35.1134 48.0611 34.7734 46.6993 34.7734H39.4992H39.2866V34.986V40.6931V40.8295L39.4106 40.8863C42.0842 42.1119 44.0539 42.6775 46.3653 42.6775C49.0056 42.6775 51.263 41.2243 51.3905 38.8545Z" fill="#F0E7D8" stroke="#4A4A4A" stroke-width="0.425198"/>
<path d="M0.426222 45.3181C0.426222 20.9915 20.1408 1.27098 44.4598 1.27098C68.7787 1.27098 88.4933 20.9915 88.4933 45.3181C88.4933 69.6446 68.7787 89.3651 44.4598 89.3651C20.1408 89.3651 0.426222 69.6446 0.426222 45.3181ZM10.0592 45.3181C10.0592 64.3229 25.4606 79.7291 44.4598 79.7291C63.4589 79.7291 78.8603 64.3229 78.8603 45.3181C78.8603 26.3133 63.4589 10.907 44.4598 10.907C25.4606 10.907 10.0592 26.3133 10.0592 45.3181Z" fill="#F0E7D8" stroke="#4A4A4A" stroke-width="0.425198"/>
<path d="M43.1019 53.6544L39.8331 47.5612L39.5019 47.616V62.13H24.8828V23.3528H49.8037C58.6655 23.3528 64.5898 28.3944 64.5898 35.2626C64.5898 41.5228 59.8263 46.5644 51.742 46.5644C50.3567 46.5644 49.0837 46.4548 47.9202 46.233L47.6985 46.6219C50.855 49.281 53.015 50.1107 55.6733 50.1107C58.9968 50.1107 62.2081 48.7251 63.8151 46.6219L65.6438 61.303C63.8151 62.1903 60.8803 62.9653 58.9995 62.9653C51.5777 62.9653 47.0387 61.1935 43.1046 53.6598L43.1019 53.6544ZM51.1862 38.6419C51.1862 36.3142 49.3575 34.986 46.6992 34.986H39.4991V40.693C42.1574 41.9117 44.0957 42.4648 46.3652 42.4648C49.0235 42.4648 51.1835 40.9696 51.1835 38.6419H51.1862Z" fill="#F0E7D8" stroke="#4A4A4A" stroke-width="0.425198"/>
<path d="M44.4597 89.576C20.0614 89.576 0.212599 69.7213 0.212599 45.3154C0.212599 20.9094 20.0614 1.0547 44.4597 1.0547C68.858 1.0547 88.7067 20.9094 88.7067 45.3154C88.7067 69.7213 68.858 89.576 44.4597 89.576ZM44.4597 1.05945C20.0646 1.05945 0.217216 20.913 0.217216 45.3154C0.217216 69.7178 20.0646 89.5713 44.4597 89.5713C68.8548 89.5713 88.7021 69.7178 88.7021 45.3154C88.7021 20.913 68.8548 1.05945 44.4597 1.05945ZM44.4597 79.5175C25.6079 79.5175 10.2681 64.1731 10.2681 45.3154C10.2681 26.4576 25.6051 11.1132 44.4597 11.1132C63.3142 11.1132 78.6513 26.4549 78.6513 45.3154C78.6513 64.1758 63.3142 79.5175 44.4597 79.5175ZM44.4597 11.1207C25.6084 11.1207 10.2727 26.4612 10.2727 45.3181C10.2727 64.175 25.6084 79.5155 44.4597 79.5155C63.311 79.5155 78.6467 64.175 78.6467 45.3181C78.6467 26.4612 63.311 11.1207 44.4597 11.1207Z" fill="#626262" stroke="#4A4A4A" stroke-width="0.425198"/>
</svg>
